<?xml version="1.0" encoding="utf-8"?>
<svg viewBox="0 0 400 400" width="400px" height="400px" xmlns="http://www.w3.org/2000/svg">
  <g>
    <g>
      <g>
        <path d="M0 0L400 0L400 402L0 402L0 0Z" transform="matrix(1, 0, 0, 1, 0, 0)" opacity="1" fill="#000229" fill-opacity="1"/>
      </g>
      <g id="aJtk70TJj">
        <path d="M 475.14 631.29 L 591.27 342.14 C 594.837 333.447 601.397 329.027 610.95 328.88 L 624.21 328.88 C 633.903 328.88 640.46 333.3 643.88 342.14 L 760.01 631.29 C 760.443 632.15 760.66 632.793 760.66 633.22 C 760.66 634.787 759.233 635.57 756.38 635.57 L 724.94 635.57 C 722.087 635.57 719.877 634.143 718.31 631.29 L 687.73 556.65 L 547.43 556.65 L 516.85 631.29 C 515.423 634.143 513.213 635.57 510.22 635.57 L 478.78 635.57 C 476.073 635.57 474.72 634.787 474.72 633.22 C 474.573 632.793 474.713 632.15 475.14 631.29 Z M 617.58 379.36 L 558.55 526.07 L 676.82 526.07 L 617.58 379.36 Z" transform="matrix(1, 0, 0, 1, -417.6883850097656, -296.9965515136719)" style="fill: rgb(236, 230, 230); line-height: 438px; white-space: pre; alignment-baseline: before-edge;"/>
      </g>
      <g>
        <path d="M232.95 155.75L265.9 229.82L200 229.82L134.1 229.82L167.04 155.75L200 81.68L232.95 155.75Z" transform="matrix(1, 0, 0, 1, 0, 0)" opacity="1" fill="#008c8c" fill-opacity="1"/>
        <g>
          <path d="M232.95 155.75L265.9 229.82L200 229.82L134.1 229.82L167.04 155.75L200 81.68L232.95 155.75Z" transform="matrix(1, 0, 0, 1, 0, 0)" opacity="1" fill-opacity="0" stroke="#909090" stroke-width="3" stroke-opacity="1"/>
        </g>
      </g>
    </g>
  </g>
</svg>